mtllib materials.mtl
v 1.179261 -1.095261 -2.557118
v 1.299261 -1.095261 -2.557117
v 1.299262 1.744738 -2.557117
v 1.179262 1.744738 -2.557118
v 1.179262 -1.095261 0.61408
v 1.179263 1.744738 0.6140802
v 1.299263 1.744738 0.61408
v 1.299262 -1.095261 0.6140797
v -1.541936 -1.095261 0.6140764
v -1.541936 -1.095261 0.4940764
v -1.541935 1.744739 0.4940763
v -1.541936 1.744739 0.6140765
v 1.179262 -1.095261 0.61408
v 1.179263 1.744738 0.61408
v 1.179263 1.744738 0.4940799
v 1.179262 -1.095261 0.4940799
v -1.537925 1.845523 -2.553159
v -1.537925 1.725522 -2.553158
v 1.302074 1.725521 -2.553158
v 1.302074 1.845522 -2.553159
v -1.537925 1.845522 0.618039
v 1.302075 1.845522 0.6180393
v 1.302075 1.725521 0.618039
v -1.537925 1.725522 0.6180388
vn 3.85443E-06 -1.50885E-08 -1
vn 2.10603E-06 -8.759066E-08 1
vn 5.078856E-07 -1 4.698901E-08
vn -6.862809E-07 1 -7.518244E-08
vn -1 2.92514E-07 1.313096E-07
vn 1 -3.121898E-07 -1.122483E-07
vn -1 2.692654E-07 -5.928147E-06
vn 1 -3.046742E-07 -3.231122E-08
vn -1.513712E-07 -1 -9.734289E-07
vn 4.1853E-08 1 2.958723E-07
vn -1.283669E-06 -1.555295E-08 1
vn 1.321308E-06 -2.511046E-08 -1
vn -1.508851E-08 -3.97364E-06 -1
vn -8.759066E-08 -1.986821E-06 1
vn -1 -5.078855E-07 4.698907E-08
vn 1 6.862808E-07 -7.518251E-08
vn 2.92514E-07 1 1.210033E-08
vn -3.121899E-07 -1 6.960982E-09
vt 0.01987139 0.1491348
vt 0.02523795 0.1598679
vt -0.2287792 0.2868768
vt -0.2341458 0.2761436
vt -0.01987207 0.1491364
vt 0.2341452 0.2761451
vt 0.2287787 0.2868782
vt -0.02523863 0.1598696
vt -0.3419863 0.2732181
vt -0.0433412 0.1665592
vt -0.03930519 0.1778601
vt -0.3379501 0.284519
vt 0.3419861 0.2732183
vt 0.33795 0.2845192
vt 0.03930505 0.1778604
vt 0.04334106 0.1665595
vt 0.3084148 0.2804161
vt 0.1433433 0.5115165
vt -0.1147079 0.3271944
vt 0.05036366 0.09609407
vt -0.3084147 0.2804161
vt -0.05036368 0.09609409
vt 0.1147079 0.3271945
vt -0.1433432 0.5115165
vt 0.05036259 0.09609421
vt 0.06012734 0.1030692
vt -0.104946 0.3341682
vt -0.1147108 0.3271932
vt -0.05036366 0.09609409
vt 0.1147079 0.3271944
vt 0.1049431 0.3341693
vt -0.06012846 0.1030689
vt -0.1348654 -0.08970723
vt -0.04334115 0.1665592
vt -0.05464205 0.1705953
vt -0.1461663 -0.08567112
vt 0.1348654 -0.0897072
vt 0.1461663 -0.08567109
vt 0.05464213 0.1705954
vt 0.04334123 0.1665593
vt 0.1018238 -0.09425518
vt 0.355841 0.03275358
vt 0.2341452 0.2761449
vt -0.01987201 0.1491362
vt -0.1018237 -0.09425513
vt 0.01987199 0.1491361
vt -0.2341452 0.2761449
vt -0.355841 0.03275362
vt -0.3646774 0.03762067
vt -0.3539442 0.03225408
vt -0.2269352 0.2862712
vt -0.2376684 0.2916378
vt 0.3646758 0.03761921
vt 0.2376672 0.2916366
vt 0.2269341 0.28627
vt 0.3539427 0.03225267
vt 0.1371626 0.5194876
vt -0.1208883 0.3351654
vt -0.1139134 0.3254006
vt 0.1441375 0.5097228
vt -0.1371627 0.5194874
vt -0.1441375 0.5097226
vt 0.1139133 0.3254003
vt 0.1208882 0.3351651
vt 0.4330023 0.01719601
vt 0.3374828 0.2846507
vt 0.03883771 0.1779918
vt 0.1343573 -0.08946292
vt -0.4330022 0.01719599
vt -0.1343573 -0.08946291
vt -0.03883773 0.1779918
vt -0.3374827 0.2846507
o group1574551441
g mesh1574551441
usemtl mat21
f 4/4/1 3/3/1 2/2/1 1/1/1
f 8/8/2 7/7/2 6/6/2 5/5/2
f 2/12/3 8/11/3 5/10/3 1/9/3
f 6/16/4 7/15/4 3/14/4 4/13/4
f 5/20/5 6/19/5 4/18/5 1/17/5
f 3/24/6 7/23/6 8/22/6 2/21/6
o group307789018
g mesh307789018
usemtl mat21
f 12/28/7 11/27/7 10/26/7 9/25/7
f 16/32/8 15/31/8 14/30/8 13/29/8
f 10/36/9 16/35/9 13/34/9 9/33/9
f 14/40/10 15/39/10 11/38/10 12/37/10
f 13/44/11 14/43/11 12/42/11 9/41/11
f 11/48/12 15/47/12 16/46/12 10/45/12
o group1292126864
g mesh1292126864
usemtl mat21
f 20/52/13 19/51/13 18/50/13 17/49/13
f 24/56/14 23/55/14 22/54/14 21/53/14
f 18/60/15 24/59/15 21/58/15 17/57/15
f 22/64/16 23/63/16 19/62/16 20/61/16
f 21/68/17 22/67/17 20/66/17 17/65/17
f 19/72/18 23/71/18 24/70/18 18/69/18
