mtllib materials.mtl
v 0.6683485 -0.658389 0.2236457
v 0.7883485 -0.658389 0.2236466
v 0.7883494 2.181611 0.2236466
v 0.6683493 2.181611 0.2236457
v 0.6683635 -0.6583889 1.524845
v 0.6683643 2.181611 1.524846
v 0.7883645 2.181611 1.524845
v 0.7883635 -0.6583889 1.524845
v -2.050021 -0.5676053 -1.642393
v -1.930021 -0.5676051 -1.642393
v -1.93002 2.272394 -1.642392
v -2.05002 2.272394 -1.642393
v -2.050021 -0.5676056 1.528805
v -2.05002 2.272394 1.528805
v -1.93002 2.272394 1.528805
v -1.930021 -0.5676056 1.528804
v -2.048823 2.282395 -1.642393
v -2.048823 2.162395 -1.642393
v 0.7911763 2.162394 -1.642393
v 0.7911763 2.282394 -1.642393
v -2.048823 2.282395 1.528804
v 0.7911765 2.282394 1.528805
v 0.7911765 2.162394 1.528804
v -2.048823 2.162395 1.528804
v 0.679206 -0.6399287 -1.635654
v 0.799206 -0.6399287 -1.635653
v 0.7992074 2.200071 -1.635653
v 0.6792073 2.200071 -1.635654
v 0.679221 -0.6399286 -0.3344541
v 0.6792223 2.200071 -0.3344538
v 0.7992224 2.200071 -0.3344541
v 0.799221 -0.6399285 -0.3344543
v 0.6909718 1.555129 -0.4898496
v 0.8109136 1.558764 -0.4889798
v 0.7925135 2.168388 -0.499907
v 0.6725716 2.164753 -0.5007768
v 0.6808657 1.578143 0.8111075
v 0.6624655 2.187767 0.8001804
v 0.7824073 2.191402 0.801049
v 0.8008075 1.581778 0.8119761
v 0.6773064 -0.62895 -0.6216149
v 0.7973066 -0.6289499 -0.621614
v 0.797305 0.5372013 -0.621614
v 0.6773049 0.5372013 -0.6216149
v 0.6773214 -0.6289498 0.6795851
v 0.6773199 0.5372015 0.679585
v 0.7973201 0.5372015 0.6795847
v 0.7973215 -0.6289496 0.6795847
v 0.6626142 1.012635 -0.3742521
v 0.7430614 1.012114 -0.3729379
v 0.7399212 1.076389 -0.3754418
v 0.6594763 1.077142 -0.3767815
v 0.6513906 1.009372 0.311434
v 0.6480164 1.072929 0.3088958
v 0.7284613 1.072176 0.3102357
v 0.7318378 1.00885 0.3127487
v 0.6764833 0.3081416 -0.03368592
v 0.7569172 0.3064408 -0.0325706
v 0.7542035 0.3060726 -0.09691286
v 0.6737729 0.307755 -0.0982604
v 0.7082472 1.826786 -0.01497507
v 0.7052925 1.82637 -0.07860231
v 0.7857233 1.824687 -0.07725501
v 0.7886812 1.825085 -0.01385975
vn 7.828072E-06 -6.253001E-10 -1
vn 2.10603E-06 -8.759066E-08 1
vn 5.573148E-07 -1 1.14513E-07
vn -1.388923E-07 1 -1.832299E-07
vn -1 2.931694E-07 1.154209E-05
vn 1 -3.22683E-07 -1.151976E-05
vn 3.85443E-06 1.597571E-07 -1
vn 2.10603E-06 -2.624362E-07 1
vn 5.078856E-07 -1 -1.278566E-07
vn -6.862809E-07 1 9.966313E-08
vn -1 2.92514E-07 1.313097E-07
vn 1 -3.121898E-07 -1.122484E-07
vn -1.508851E-08 -3.97364E-06 -1
vn -8.759066E-08 -1.986821E-06 1
vn -1 -5.078855E-07 4.698907E-08
vn 1 6.862808E-07 -7.518251E-08
vn 2.92514E-07 1 1.210033E-08
vn -3.121899E-07 -1 6.960982E-09
vn 7.828072E-06 -6.266897E-10 -1
vn 2.10603E-06 -8.7591E-08 1
vn 3.824693E-07 -1 1.14513E-07
vn 3.595328E-08 1 -1.832299E-07
vn -1 4.680149E-07 1.154209E-05
vn 1 -4.975286E-07 -1.151976E-05
vn 0.007786097 -0.01768594 -0.9998133
vn -0.007776171 0.01768632 0.9998134
vn 0.03016319 -0.9993845 0.01791338
vn -0.03016269 0.9993845 -0.01791347
vn -0.9995148 -0.03029769 -0.007228458
vn 0.9995148 0.03029775 0.007228478
vn 7.455538E-06 -2.694631E-08 -1
vn 2.602734E-06 6.992536E-08 1
vn 1.35564E-06 -1 1.832184E-07
vn 3.595328E-08 1 -1.832299E-07
vn -1 -1.246714E-06 1.152592E-05
vn 1 1.288243E-06 -1.150303E-05
vn 0.01617825 -0.03826107 -0.9991368
vn -0.0161738 0.03891451 0.9991117
vn -0.006400116 -0.9999677 -0.004864913
vn 0.00925301 0.9999374 0.006299497
vn -0.9985349 -0.0514398 -0.01679701
vn 0.9985237 0.05165526 0.01679799
vn -0.02112913 -0.9997541 0.006743466
vn 0.02113859 0.9997492 -0.007395434
vn -0.01411846 -0.01202321 0.9998281
vn 0.0170125 0.01258857 -0.9997761
vn -0.9988257 0.02025522 0.04401059
vn 0.9988163 -0.02025232 -0.04422648
vt 0.01987074 0.1491333
vt 0.02523731 0.1598664
vt -0.2287798 0.2868754
vt -0.2341464 0.2761423
vt -0.01987207 0.1491364
vt 0.2341452 0.2761451
vt 0.2287787 0.2868782
vt -0.02523863 0.1598696
vt -0.1658811 0.2103219
vt -0.0433412 0.1665592
vt -0.03930519 0.1778601
vt -0.161845 0.2216228
vt 0.1658811 0.2103219
vt 0.1618449 0.2216228
vt 0.03930507 0.1778602
vt 0.04334109 0.1665593
vt 0.1562479 0.1717214
vt -0.008820084 0.4028243
vt -0.1147043 0.3271952
vt 0.05036379 0.09609237
vt -0.1562477 0.1717213
vt -0.05036369 0.09609231
vt 0.1147044 0.3271951
vt 0.008820276 0.4028241
vt -0.1098185 -0.08994493
vt -0.1044519 -0.07921179
vt -0.3584691 0.04779705
vt -0.3638357 0.03706392
vt 0.1098176 -0.08994338
vt 0.3638349 0.03706523
vt 0.3584683 0.04779837
vt 0.104451 -0.07921024
vt -0.4330425 0.01708329
vt -0.1343975 -0.0895756
vt -0.1303615 -0.07827469
vt -0.4290065 0.0283842
vt 0.4330424 0.01708355
vt 0.4290063 0.02838443
vt 0.1303613 -0.07827443
vt 0.1343974 -0.08957535
vt 0.3028159 0.2875733
vt 0.1377444 0.5186737
vt -0.1203067 0.3343516
vt 0.0447649 0.1032513
vt -0.3028159 0.2875733
vt -0.04476492 0.1032513
vt 0.1203067 0.3343516
vt -0.1377443 0.5186736
vt -0.3646774 0.03762067
vt -0.3539442 0.03225408
vt -0.2269352 0.2862712
vt -0.2376684 0.2916378
vt 0.3646758 0.03761921
vt 0.2376672 0.2916366
vt 0.2269341 0.28627
vt 0.3539427 0.03225267
vt 0.1371626 0.5194876
vt -0.1208883 0.3351654
vt -0.1139134 0.3254006
vt 0.1441375 0.5097228
vt -0.1371627 0.5194874
vt -0.1441375 0.5097226
vt 0.1139133 0.3254003
vt 0.1208882 0.3351651
vt 0.4330023 0.01719601
vt 0.3374828 0.2846507
vt 0.03883771 0.1779918
vt 0.1343573 -0.08946292
vt -0.4330022 0.01719599
vt -0.1343573 -0.08946291
vt -0.03883773 0.1779918
vt -0.3374827 0.2846507
vt 0.01870451 0.1509287
vt 0.02407108 0.1616618
vt -0.229946 0.2886709
vt -0.2353126 0.2779377
vt -0.01870668 0.1509335
vt 0.2353106 0.2779421
vt 0.229944 0.2886753
vt -0.02407324 0.1616666
vt -0.340614 0.2738793
vt -0.2180741 0.2301167
vt -0.214038 0.2414176
vt -0.3365779 0.2851802
vt 0.3406139 0.2738794
vt 0.3365778 0.2851803
vt 0.2140379 0.2414177
vt 0.2180739 0.2301168
vt 0.3064741 0.2812908
vt 0.1414061 0.5123937
vt 0.03552192 0.4367647
vt 0.2005899 0.2056618
vt -0.3064739 0.2812907
vt -0.2005898 0.2056617
vt -0.03552181 0.4367646
vt -0.1414059 0.5123936
vt -0.1812775 0.2515506
vt -0.176171 0.2624098
vt -0.2313721 0.288368
vt -0.2364787 0.2775088
vt 0.1812761 0.2515541
vt 0.2364773 0.2775122
vt 0.2313708 0.2883715
vt 0.1761696 0.2624134
vt -0.227962 0.2397262
vt -0.1052143 0.1965496
vt -0.1012323 0.2078697
vt -0.2239799 0.2510462
vt 0.227962 0.2397259
vt 0.22398 0.251046
vt 0.1012324 0.2078695
vt 0.1052143 0.1965494
vt 0.07351981 0.3935349
vt 0.03698193 0.4423814
vt -0.06721327 0.3644418
vt -0.03067536 0.3155953
vt -0.07351959 0.3935348
vt 0.03067548 0.3155952
vt 0.06721338 0.3644417
vt -0.0369817 0.4423812
vt 0.01763798 0.1512506
vt 0.02300456 0.1619837
vt -0.08129919 0.2141356
vt -0.08666576 0.2034024
vt -0.01763966 0.1512544
vt 0.08666416 0.2034062
vt 0.08129759 0.2141393
vt -0.02300622 0.1619876
vt -0.2451816 0.2395946
vt -0.1226416 0.195832
vt -0.1186056 0.2071329
vt -0.2411455 0.2508955
vt 0.2451816 0.2395945
vt 0.2411455 0.2508954
vt 0.1186056 0.2071327
vt 0.1226417 0.1958318
vt 0.2233191 0.2232458
vt 0.1555393 0.3181404
vt 0.04965522 0.2425112
vt 0.117435 0.1476166
vt -0.2233189 0.2232457
vt -0.1174349 0.1476166
vt -0.04965512 0.2425112
vt -0.1555391 0.3181403
vt -0.1386447 0.2259482
vt -0.1349035 0.2330714
vt -0.1407634 0.2357428
vt -0.1445252 0.2286304
vt 0.1361113 0.224672
vt 0.1419179 0.2272907
vt 0.1381548 0.2344025
vt 0.1323688 0.2317946
vt -0.2231016 0.2296572
vt -0.1589814 0.205334
vt -0.1561277 0.2128569
vt -0.2202479 0.2371801
vt 0.2237503 0.22918
vt 0.2208858 0.2366987
vt 0.1568007 0.2122832
vt 0.1596652 0.2047644
vt 0.0882972 0.3454428
vt 0.08435012 0.3505608
vt 0.03196047 0.3063076
vt 0.03584721 0.3012612
vt -0.08853661 0.3450834
vt -0.03609731 0.3008889
vt -0.03222221 0.3059151
vt -0.08460113 0.350181
vt -0.1898736 0.2165337
vt -0.1870605 0.2240718
vt -0.1932104 0.2259829
vt -0.1960453 0.218453
vt 0.1870394 0.2154018
vt 0.1931307 0.2172645
vt 0.1902981 0.2247953
vt 0.1842285 0.2229408
vt 0.06536011 0.1884078
vt 0.1998791 0.2589843
vt 0.1961406 0.266109
vt 0.06162158 0.1955325
vt -0.0655738 0.1873013
vt -0.06183523 0.1944259
vt -0.1963439 0.2650171
vt -0.2000825 0.2578924
vt 0.1343985 0.2542167
vt 0.139958 0.2575131
vt 0.05991469 0.3866207
vt 0.05443358 0.3833756
vt -0.1340513 0.2539118
vt -0.0541256 0.383095
vt -0.05958693 0.386328
vt -0.1395909 0.257196
o group1574551441
g mesh1574551441
usemtl mat21
f 4/4/1 3/3/1 2/2/1 1/1/1
f 8/8/2 7/7/2 6/6/2 5/5/2
f 2/12/3 8/11/3 5/10/3 1/9/3
f 6/16/4 7/15/4 3/14/4 4/13/4
f 5/20/5 6/19/5 4/18/5 1/17/5
f 3/24/6 7/23/6 8/22/6 2/21/6
o group307789018
g mesh307789018
usemtl mat21
f 12/28/7 11/27/7 10/26/7 9/25/7
f 16/32/8 15/31/8 14/30/8 13/29/8
f 10/36/9 16/35/9 13/34/9 9/33/9
f 14/40/10 15/39/10 11/38/10 12/37/10
f 13/44/11 14/43/11 12/42/11 9/41/11
f 11/48/12 15/47/12 16/46/12 10/45/12
o group1292126864
g mesh1292126864
usemtl mat21
f 20/52/13 19/51/13 18/50/13 17/49/13
f 24/56/14 23/55/14 22/54/14 21/53/14
f 18/60/15 24/59/15 21/58/15 17/57/15
f 22/64/16 23/63/16 19/62/16 20/61/16
f 21/68/17 22/67/17 20/66/17 17/65/17
f 19/72/18 23/71/18 24/70/18 18/69/18
o group1576506326
g mesh1576506326
usemtl mat21
f 28/76/19 27/75/19 26/74/19 25/73/19
f 32/80/20 31/79/20 30/78/20 29/77/20
f 26/84/21 32/83/21 29/82/21 25/81/21
f 30/88/22 31/87/22 27/86/22 28/85/22
f 29/92/23 30/91/23 28/90/23 25/89/23
f 27/96/24 31/95/24 32/94/24 26/93/24
o group756853233
g mesh756853233
usemtl mat21
f 36/100/25 35/99/25 34/98/25 33/97/25
f 40/104/26 39/103/26 38/102/26 37/101/26
f 34/108/27 40/107/27 37/106/27 33/105/27
f 38/112/28 39/111/28 35/110/28 36/109/28
f 37/116/29 38/115/29 36/114/29 33/113/29
f 35/120/30 39/119/30 40/118/30 34/117/30
o group111322015
g mesh111322015
usemtl mat21
f 44/124/31 43/123/31 42/122/31 41/121/31
f 48/128/32 47/127/32 46/126/32 45/125/32
f 42/132/33 48/131/33 45/130/33 41/129/33
f 46/136/34 47/135/34 43/134/34 44/133/34
f 45/140/35 46/139/35 44/138/35 41/137/35
f 43/144/36 47/143/36 48/142/36 42/141/36
o group1641603942
g mesh1641603942
usemtl mat21
f 52/148/37 51/147/37 50/146/37 49/145/37
f 56/152/38 55/151/38 54/150/38 53/149/38
f 50/156/39 56/155/39 53/154/39 49/153/39
f 54/160/40 55/159/40 51/158/40 52/157/40
f 53/164/41 54/163/41 52/162/41 49/161/41
f 51/168/42 55/167/42 56/166/42 50/165/42
o group225957222
g mesh225957222
usemtl mat21
f 60/172/43 59/171/43 58/170/43 57/169/43
f 64/176/44 63/175/44 62/174/44 61/173/44
f 58/180/45 64/179/45 61/178/45 57/177/45
f 62/184/46 63/183/46 59/182/46 60/181/46
f 61/188/47 62/187/47 60/186/47 57/185/47
f 59/192/48 63/191/48 64/190/48 58/189/48
